<?xml version="1.0" encoding="utf-8"?>
<!-- Generator: Adobe Illustrator 23.0.0, SVG Export Plug-In . SVG Version: 6.00 Build 0)  -->
<svg version="1.1" id="Layer_1" xmlns="http://www.w3.org/2000/svg" xmlns:xlink="http://www.w3.org/1999/xlink" x="0px" y="0px"
	 viewBox="0 0 612 792" style="enable-background:new 0 0 612 792;" xml:space="preserve">
<style type="text/css">
	.st0{fill:#00A385;}
	.st1{fill:#034528;}
</style>
<g>
	<path class="st0" d="M309.13,577.3c-75.8-0.09-147.05-17.96-200.62-50.33c-53.63-32.4-83.14-75.44-83.08-121.2
		c0.05-45.71,29.6-88.65,83.18-120.91c53.52-32.22,124.67-49.97,200.35-49.97l0.57,0c75.8,0.09,147.04,17.96,200.61,50.33
		c53.63,32.4,83.13,75.45,83.08,121.21c-0.05,45.71-29.6,88.65-83.19,120.91c-53.52,32.22-124.68,49.96-200.37,49.96H309.13z"/>
	<path d="M308.96,235.27c0.19,0,0.38,0,0.57,0c156.58,0.18,283.43,76.82,283.32,171.16c-0.11,94.23-126.85,170.49-283.18,170.49
		c-0.18,0-0.36,0-0.54,0C152.54,576.74,25.69,500.11,25.8,405.77C25.91,311.54,152.64,235.27,308.96,235.27 M308.96,234.52
		c-75.75,0-146.97,17.77-200.55,50.02c-26.09,15.71-46.59,34.01-60.92,54.4c-14.87,21.15-22.42,43.63-22.44,66.83
		c-0.03,23.22,7.49,45.74,22.34,66.95c14.32,20.44,34.82,38.81,60.93,54.58c26.08,15.76,56.46,28.14,90.28,36.8
		c35.01,8.96,72.19,13.53,110.53,13.58l0.54,0c75.75,0,146.98-17.76,200.56-50.02c26.09-15.71,46.59-34.01,60.92-54.4
		c14.87-21.15,22.42-43.63,22.44-66.82c0.03-23.22-7.49-45.74-22.34-66.95c-14.32-20.45-34.81-38.81-60.92-54.58
		c-26.08-15.76-56.46-28.14-90.28-36.8c-35-8.96-72.19-13.53-110.53-13.58L308.96,234.52L308.96,234.52z"/>
</g>
<g>
	<path class="st1" d="M448.4,312.15c-6.17-0.32-23.3-1.45-44.42,16.92c-21.13,18.37-43.17,54.34-37.71,98.85
		c5.46,44.51,56.48,41.68,96.49,3.91l1.15-8.88c0,0-30.31,27.51-56.23,23.64c0,0-25.99-2.51-15.69-67.96c0,0,8.7-52.48,41.9-56.24
		c0,0,15.88-1.23,20.94,11.41c0,0,2.78,5.26,1.05,17.85l8.19,1.04c0.01-0.08,4.88-29.07,6.84-34.32
		C470.91,318.37,459.75,312.75,448.4,312.15z"/>
	<g>
		<g>
			<path class="st1" d="M382.81,466.37c0,0-14.14,3.15-19.18-18.88c-5.03-22.03-16.09-162.8-16.09-162.8s1.42-6.17-0.89-5.83
				c-2.31,0.34-20.73,4.88-20.73,4.88c-5.67,0.35-11.35,0.9-16.99,1.62c-10.49,1.34-21.13,2.73-31.26,5.87
				c-11.08,3.44-20.63,9.92-28.26,18.59c-2.73,3.1-5.11,6.53-7.19,10.1c0,0-10.98-4.7-17.16-4.79c-6.18-0.09-23.3-1.45-44.42,16.92
				c-21.13,18.37-43.17,54.34-37.71,98.85c5.46,44.51,56.48,41.68,96.49,3.91l1.15-8.88c0,0-30.31,27.51-56.23,23.64
				c0,0-25.99-2.51-15.69-67.96c0,0,8.71-52.48,41.9-56.24c0,0,15.88-1.23,20.94,11.41c0,0,0.97,3.26-1.52,24.67
				c0,0,21.07-13.1,21.08-13.1c0.07-0.04-0.02-3.26-0.01-3.45c0.16-3.05,0.24-6.11,0.59-9.14c0.89-7.79,3.87-16.91,8.56-23.26
				c4.83-6.53,12.75-10.49,20.21-13.12c7.5-2.65,15.41-3.76,23.34-3.88c3.02-0.05,6.03,0.07,9.03,0.37
				c0.88,0.09,9.34,1.68,9.46,1.44l-53.79,108.32c0,0-52.75,101.5-86.08,108c0,0-16.19,2.82-6.1-41.11l-3.32,2.12
				c0,0-12.93,45.61,2.68,53.76c15.61,8.15,57.02-30.01,96.95-109.95l63.28-0.81l5.74,65.38l51.4-10.14l1.35-8.18L382.81,466.37z
				 M332.66,408.97c-1.61,0.14-53.17,0.19-53.17,0.19s-1.6-0.08-1.56-0.77c0,0,42.91-88.72,46.57-97.24c0,0,1.5-2.44,1.77,1.24
				c0.27,3.68,8.53,95.31,8.53,95.31S334.27,408.83,332.66,408.97z"/>
		</g>
	</g>
</g>
</svg>
