<svg width="385" height="127" viewBox="0 0 385 127" fill="none" xmlns="http://www.w3.org/2000/svg">
<g clip-path="url(#clip0)">
<path d="M63.5063 108.331C54.9416 108.331 47.0179 105.931 40.3177 101.776H12.7012C24.2955 117.109 42.5317 127 63.1567 127C80.752 127 96.7743 119.685 108.252 108.038L95.5508 94.5771C87.4522 103.063 76.0327 108.331 63.5063 108.331Z" fill="#261F60"/>
<path d="M18.7023 64.4364V63.5C18.7023 38.7438 38.6864 18.6696 63.2733 18.6696C75.1589 18.6696 85.821 23.2931 93.9195 30.9599L107.262 18.2014C96.017 6.84747 80.286 0 63.1568 0C28.2574 0 0 28.3848 0 63.5C0 63.7926 0 64.1438 0 64.4364H18.7023Z" fill="#261F60"/>
<path fill-rule="evenodd" clip-rule="evenodd" d="M385 50.7999H366.181V49.1612C366.181 44.6548 365.016 41.6114 362.86 39.6216C360.705 37.6317 357.384 36.4612 352.49 36.4612C349.635 36.4612 347.304 37.0465 345.44 38.0414C343.517 39.0949 342.177 40.2654 341.303 41.4944C340.429 42.782 339.672 44.7718 339.147 47.6396C338.623 50.5658 338.273 52.9654 338.215 54.8382C338.157 56.828 338.099 59.4617 338.099 62.8562V69.6451C338.157 70.7571 338.273 72.6299 338.448 75.205C338.681 77.7216 338.973 79.3603 339.322 80.2967C339.788 81.4087 340.429 82.8133 341.187 84.5105C341.944 86.0907 342.876 87.0271 343.75 87.5538H343.808H343.867C346.896 89.4852 350.276 90.4216 354.179 90.4216C357.442 90.4216 360.122 89.7193 362.278 88.4317C364.375 87.2027 366.065 85.3299 367.347 82.7548V78.9506H357.034V61.8027H384.884V89.6022L384.767 89.8949C382.145 96.04 378.009 100.781 372.299 103.882C366.647 106.984 360.297 108.506 353.247 108.506C340.837 108.506 331.515 105.053 325.689 97.7958C319.979 90.5972 317.299 79.8285 317.299 65.8995V55.4234C317.299 44.011 320.329 34.881 326.504 28.2091C332.738 21.5958 341.303 18.3184 351.965 18.3184C362.627 18.3184 371.367 21.5373 378.009 28.1506C382.844 32.9497 385.117 40.0313 385.117 49.1027V50.7999H385Z" fill="#261F60"/>
<path fill-rule="evenodd" clip-rule="evenodd" d="M227.399 50.8V49.1613C227.399 40.0899 225.127 33.0083 220.291 28.2092C213.708 21.5958 204.968 18.377 194.248 18.377C183.586 18.377 175.021 21.5958 168.787 28.2677C162.611 34.8811 159.582 44.0111 159.582 55.482V60.2811V66.0751V70.8742C159.582 82.2866 162.611 91.4166 168.787 98.0885C175.021 104.702 183.586 107.979 194.248 107.979C204.91 107.979 213.649 104.76 220.291 98.147C225.127 93.3479 227.399 86.2663 227.399 77.1949V75.4977H208.58V77.0779C208.58 81.5843 207.415 84.6276 205.26 86.6175C203.104 88.6074 199.783 89.7779 194.889 89.7779C192.034 89.7779 189.703 89.1926 187.839 88.1977C185.916 87.1442 184.576 85.9737 183.702 84.7447C182.828 83.4571 182.071 81.4673 181.547 78.5995C181.022 75.6733 180.673 73.2737 180.614 71.4009C180.556 69.411 180.498 66.7774 180.498 63.3829V62.9147C180.498 59.5788 180.556 56.8866 180.614 54.8968C180.673 53.024 181.022 50.6244 181.547 47.6981C182.071 44.8304 182.828 42.8405 183.702 41.553C184.576 40.2654 185.916 39.1534 187.839 38.1C189.703 37.0465 192.034 36.5198 194.889 36.5198C199.783 36.5198 203.104 37.6903 205.26 39.6802C207.357 41.67 208.58 44.7719 208.58 49.2198V50.8H227.399Z" fill="#261F60"/>
<path fill-rule="evenodd" clip-rule="evenodd" d="M291.08 72.5712C295.042 70.7569 298.422 67.8892 301.16 64.0265C304.423 59.4615 306.054 54.1357 306.054 48.0491C306.054 39.7385 303.374 32.774 298.014 27.3311C292.712 21.7712 285.487 19.0205 276.69 19.0205H262.532C255.424 19.0205 249.889 20.5422 246.509 23.9366C243.13 27.2726 241.557 32.4228 241.557 39.0362V107.862H261.483V76.1412H270.922C270.863 76.1412 282.399 76.668 291.08 72.5712ZM259.852 60.632V43.1915C259.852 38.1583 262.357 35.6417 267.309 35.6417H275.583C279.253 35.6417 282.166 36.7537 284.38 39.0362C286.652 41.2601 287.759 44.2449 287.759 47.932C287.759 51.5606 286.594 54.6039 284.264 57.062C281.991 59.4615 279.137 60.6905 275.583 60.6905H259.852V60.632Z" fill="#261F60"/>
<path d="M96.7744 38.6264L101.202 43.0744L77.0816 67.1868L66.4777 56.4767L53.3104 43.2499L40.143 56.4767L32.8602 63.7923L27.2087 63.9094H0C0.116525 70.3472 1.16525 76.5509 2.9714 82.4619H40.6091L53.3104 69.7034L77.1398 93.6403L90.3072 80.4135L114.253 56.184L119.031 60.9831L122.352 34.0029L96.7744 38.6264Z" fill="white"/>
</g>
<defs>
<clipPath id="clip0">
<rect width="385" height="127" fill="white"/>
</clipPath>
</defs>
</svg>
