<svg width="40" height="40" viewBox="0 0 40 40" fill="none" xmlns="http://www.w3.org/2000/svg">
<path d="M26.6479 30.1041C27.0875 30.5089 27.1199 31.1981 26.7202 31.6434C26.3512 32.0544 25.743 32.1139 25.3058 31.8022L25.2003 31.7166L13.3521 20.8062C12.9162 20.4048 12.885 19.7313 13.2587 19.291L13.3521 19.1938L25.2003 8.28343C25.64 7.87858 26.3204 7.91136 26.7202 8.35664C27.0891 8.76767 27.0899 9.3865 26.7421 9.79769L26.6479 9.89592L16.1126 19.5969C15.8928 19.7993 15.8766 20.1439 16.0765 20.3665C16.0879 20.3793 16.1 20.3915 16.1126 20.4031L26.6479 30.1041Z" fill="black"/>
</svg>
