<svg width="40" height="40" viewBox="0 0 40 40" fill="none" xmlns="http://www.w3.org/2000/svg">
<path d="M28.5367 27.3073C29.2865 28.1832 30.5505 28.2355 31.3599 27.424C32.1267 26.6553 32.2104 25.3871 31.5795 24.511L31.4677 24.3688L21.4721 12.6927C20.7195 11.8135 19.4601 11.7712 18.6587 12.5661L18.542 12.6916L8.53315 24.3677C7.78279 25.2431 7.83023 26.611 8.63912 27.423C9.40543 28.1923 10.5802 28.1867 11.3398 27.4397L11.4624 27.3084L19.2729 18.1975C19.6481 17.7599 20.2801 17.7342 20.6845 18.1402C20.703 18.1588 20.7208 18.1781 20.7379 18.198L28.5367 27.3073Z" fill="black"/>
</svg>
