<svg width="40" height="40" viewBox="0 0 40 40" fill="none" xmlns="http://www.w3.org/2000/svg">
<path d="M28.8589 8C30.5407 8 31.9983 9.32158 31.9983 11.0837V26.7224C31.9983 28.3744 30.6528 29.8061 28.8589 29.8061H23.4377L20.6577 31.8811C20.4445 32.0403 20.1527 32.0395 19.9403 31.8793L17.0468 29.6959H11.1394C9.34545 29.6959 8 28.3744 8 26.6123V11.0837C8 9.32158 9.34545 8 11.1394 8H28.8589ZM28.7468 8.99118H11.1394C10.0182 8.99118 9.00909 9.87224 9.00909 11.0837V26.7224C9.00909 27.8237 9.90606 28.8149 11.1394 28.8149H17.3831C17.4953 28.8149 17.6074 28.8149 17.7195 28.925L19.9098 30.7283C20.1346 30.9134 20.459 30.9098 20.6797 30.7198L22.765 28.925C22.8771 28.8149 22.9892 28.8149 23.1013 28.8149H28.7468C29.868 28.8149 30.8771 27.9338 30.8771 26.7224V11.0837C30.8771 9.98237 29.9801 8.99118 28.7468 8.99118ZM20.2939 21.2822C20.4276 21.2822 20.5361 21.3913 20.5361 21.5258V22.246C20.5361 22.3806 20.4276 22.4897 20.2939 22.4897H13.5782C13.4445 22.4897 13.3361 22.3806 13.3361 22.246V21.5258C13.3361 21.3913 13.4445 21.2822 13.5782 21.2822H20.2939ZM26.2939 18.2635C26.4276 18.2635 26.5361 18.3726 26.5361 18.5072V19.2273C26.5361 19.3619 26.4276 19.471 26.2939 19.471H13.5782C13.4445 19.471 13.3361 19.3619 13.3361 19.2273V18.5072C13.3361 18.3726 13.4445 18.2635 13.5782 18.2635H26.2939ZM26.2939 15.2448C26.4276 15.2448 26.5361 15.3539 26.5361 15.4885V16.2086C26.5361 16.3432 26.4276 16.4523 26.2939 16.4523H13.5782C13.4445 16.4523 13.3361 16.3432 13.3361 16.2086V15.4885C13.3361 15.3539 13.4445 15.2448 13.5782 15.2448H26.2939Z" fill="black"/>
</svg>
