<svg width="40" height="40" viewBox="0 0 40 40" fill="none" xmlns="http://www.w3.org/2000/svg">
<path d="M20 32C16.8174 32 13.7652 30.7357 11.5147 28.4853C9.26428 26.2348 8 23.1826 8 20C8 16.8174 9.26428 13.7652 11.5147 11.5147C13.7652 9.26428 16.8174 8 20 8C23.1826 8 26.2348 9.26428 28.4853 11.5147C30.7357 13.7652 32 16.8174 32 20C32 23.1826 30.7357 26.2348 28.4853 28.4853C26.2348 30.7357 23.1826 32 20 32V32ZM20 29.6C22.5461 29.6 24.9879 28.5886 26.7882 26.7882C28.5886 24.9879 29.6 22.5461 29.6 20C29.6 17.4539 28.5886 15.0121 26.7882 13.2118C24.9879 11.4114 22.5461 10.4 20 10.4C17.4539 10.4 15.0121 11.4114 13.2118 13.2118C11.4114 15.0121 10.4 17.4539 10.4 20C10.4 22.5461 11.4114 24.9879 13.2118 26.7882C15.0121 28.5886 17.4539 29.6 20 29.6V29.6ZM21.2 19.508L24.248 22.544C24.474 22.77 24.6009 23.0764 24.6009 23.396C24.6009 23.7156 24.474 24.022 24.248 24.248C24.022 24.474 23.7156 24.6009 23.396 24.6009C23.0764 24.6009 22.77 24.474 22.544 24.248L19.16 20.84C18.9339 20.6184 18.8045 20.3165 18.8 20V15.2C18.8 14.8817 18.9264 14.5765 19.1515 14.3515C19.3765 14.1264 19.6817 14 20 14C20.3183 14 20.6235 14.1264 20.8485 14.3515C21.0736 14.5765 21.2 14.8817 21.2 15.2V19.508Z" fill="black"/>
</svg>
