<svg width="40" height="40" viewBox="0 0 40 40" fill="none" xmlns="http://www.w3.org/2000/svg">
<path fill-rule="evenodd" clip-rule="evenodd" d="M29.0752 13.8309L23.4504 8.20602C23.3191 8.07467 23.1399 8 22.9531 8H13.1094C11.9463 8 11 8.94627 11 10.1094V29.8906C11 31.0537 11.9463 32 13.1094 32H27.1719C28.335 32 29.2812 31.0537 29.2812 29.8906V14.3281C29.2812 14.1364 29.2008 13.9564 29.0752 13.8309ZM23.6562 10.4006L26.8806 13.625H24.3594C23.9717 13.625 23.6562 13.3096 23.6562 12.9219V10.4006ZM27.1719 30.5938H13.1094C12.7217 30.5938 12.4062 30.2783 12.4062 29.8906V10.1094C12.4062 9.72167 12.7217 9.40625 13.1094 9.40625H22.25V12.9219C22.25 14.085 23.1963 15.0312 24.3594 15.0312H27.875V29.8906C27.875 30.2783 27.5596 30.5938 27.1719 30.5938ZM24.3594 17.9375H15.9219C15.5336 17.9375 15.2188 18.2523 15.2188 18.6406C15.2188 19.0289 15.5336 19.3438 15.9219 19.3438H24.3594C24.7477 19.3438 25.0625 19.0289 25.0625 18.6406C25.0625 18.2523 24.7477 17.9375 24.3594 17.9375ZM15.9219 20.75H24.3594C24.7477 20.75 25.0625 21.0648 25.0625 21.4531C25.0625 21.8414 24.7477 22.1562 24.3594 22.1562H15.9219C15.5336 22.1562 15.2188 21.8414 15.2188 21.4531C15.2188 21.0648 15.5336 20.75 15.9219 20.75ZM24.3594 23.5625H15.9219C15.5336 23.5625 15.2188 23.8773 15.2188 24.2656C15.2188 24.6539 15.5336 24.9688 15.9219 24.9688H24.3594C24.7477 24.9688 25.0625 24.6539 25.0625 24.2656C25.0625 23.8773 24.7477 23.5625 24.3594 23.5625ZM15.9219 26.375H21.5469C21.9352 26.375 22.25 26.6898 22.25 27.0781C22.25 27.4664 21.9352 27.7812 21.5469 27.7812H15.9219C15.5336 27.7812 15.2188 27.4664 15.2188 27.0781C15.2188 26.6898 15.5336 26.375 15.9219 26.375Z" fill="black"/>
</svg>
