<svg width="40" height="40" viewBox="0 0 40 40" fill="none" xmlns="http://www.w3.org/2000/svg">
<path d="M30.6914 9.29549C30.6931 9.29711 30.6947 9.29874 30.6963 9.30037C31.0997 9.70394 31.1014 10.3571 30.7002 10.7628L21.5646 20L30.7002 29.2372C31.0728 29.6139 31.0979 30.204 30.7766 30.6095L30.6963 30.6996C30.6947 30.7013 30.6931 30.7029 30.6914 30.7045C30.2889 31.1019 29.64 31.098 29.2423 30.6958L19.9996 21.3524L10.7577 30.6958C10.3524 31.1002 9.70355 31.0997 9.30367 30.6996C8.90028 30.2961 8.89857 29.6429 9.29982 29.2372L18.4354 20L9.29982 10.7628C8.89857 10.3571 8.90028 9.70394 9.30367 9.30037C9.70355 8.9003 10.3524 8.89982 10.7528 9.29929L10.7577 9.30419L19.9996 18.6476L29.2423 9.30419C29.64 8.90202 30.2889 8.89813 30.6914 9.29549Z" fill="black"/>
</svg>
