<svg width="40" height="40" viewBox="0 0 40 40" fill="none" xmlns="http://www.w3.org/2000/svg">
<path fill-rule="evenodd" clip-rule="evenodd" d="M30.2588 29.7719L30.2589 17.8721C33.2818 17.8721 31.8847 14.8493 29.7227 12.1654C28.2109 10.2887 26.113 8 24.5657 8H15.2829C13.7359 8 11.5889 10.2889 10.1261 12.1654C8.03533 14.8474 6.87117 17.8386 9.59002 17.8386V29.7719C9.59002 31.0007 10.7609 32 12.1998 32H27.649C29.0884 32 30.2588 31.0007 30.2588 29.7719ZM28.6914 29.482C28.6914 30.0165 28.4955 30.3394 27.649 30.3394H26V30.3486H14V30.3397H12.2007C11.4934 30.3397 11.252 30.0165 11.252 29.3518C11.252 28.7426 11.1592 17.8386 11.1592 17.8386C11.5747 17.8328 12.6177 17.8311 14 17.8319V17.8286H26V17.8623C27.6182 17.868 28.6914 17.8721 28.6914 17.8721V29.482ZM29.4812 15.1406C29.8597 15.8017 30.049 16.1323 29.2069 16.1323H10.6414C9.60999 16.1323 10.1257 15.3604 10.6414 14.6447C10.7328 14.5179 10.8635 14.3223 11.025 14.0806C11.9686 12.6687 13.962 9.68605 15.2829 9.68605H24.5657C26.113 9.68605 28.6912 13.6531 29.2069 14.6447C29.3015 14.8267 29.3961 14.992 29.4812 15.1406Z" fill="black"/>
<path d="M21.1122 19.673C21.4114 19.7064 21.7236 19.7566 22.0488 19.8234C22.374 19.8791 22.6667 19.9626 22.9268 20.074C23.2 20.1742 23.4211 20.3079 23.5902 20.4749C23.7724 20.6309 23.8634 20.8258 23.8634 21.0597C23.8634 21.2267 23.8049 21.3715 23.6878 21.494C23.5837 21.6165 23.4146 21.6778 23.1805 21.6778C23.0114 21.6778 22.8163 21.6555 22.5951 21.611C22.387 21.5664 22.1528 21.5163 21.8927 21.4606C21.6455 21.3938 21.3724 21.3381 21.0732 21.2936C20.787 21.249 20.4813 21.2267 20.1561 21.2267C19.6098 21.2267 19.161 21.2991 18.8098 21.4439C18.4715 21.5887 18.3024 21.817 18.3024 22.1289C18.3024 22.3071 18.361 22.4574 18.478 22.58C18.6081 22.7025 18.7772 22.8138 18.9854 22.9141C19.2065 23.0032 19.4602 23.0811 19.7463 23.148C20.0455 23.2148 20.3577 23.2816 20.6829 23.3484C21.0862 23.4375 21.4829 23.5378 21.8732 23.6492C22.2764 23.7605 22.6341 23.9165 22.9463 24.1169C23.2585 24.3063 23.5122 24.5513 23.7073 24.852C23.9024 25.1416 24 25.5036 24 25.9379C24 26.6396 23.7333 27.2243 23.2 27.6921C22.6667 28.1488 21.8862 28.4383 20.8585 28.5609V29.8807C20.8585 30.148 20.8325 30.354 20.7805 30.4988C20.7415 30.6436 20.6829 30.755 20.6049 30.8329C20.5268 30.9109 20.4358 30.9555 20.3317 30.9666C20.2276 30.9889 20.1106 31 19.9805 31C19.8634 31 19.7528 30.9833 19.6488 30.9499C19.5447 30.9276 19.4537 30.8719 19.3756 30.7828C19.2976 30.7049 19.2325 30.5935 19.1805 30.4487C19.1285 30.3039 19.0959 30.1201 19.0829 29.8974V28.611C18.7577 28.5998 18.413 28.5664 18.0488 28.5107C17.6846 28.4551 17.3528 28.3715 17.0537 28.2601C16.7545 28.1376 16.5008 27.9873 16.2927 27.8091C16.0976 27.6197 16 27.3914 16 27.1241C16 26.9014 16.0585 26.7343 16.1756 26.6229C16.3057 26.5004 16.4618 26.4391 16.6439 26.4391C16.787 26.4391 16.9366 26.4781 17.0927 26.5561C17.2488 26.634 17.4374 26.7176 17.6585 26.8067C17.8797 26.8958 18.1463 26.9793 18.4585 27.0573C18.7707 27.1352 19.1545 27.1742 19.6098 27.1742C19.7789 27.1742 20 27.1687 20.2732 27.1575C20.5463 27.1352 20.813 27.0851 21.0732 27.0072C21.3463 26.9292 21.574 26.8234 21.7561 26.6897C21.9512 26.5449 22.0488 26.3445 22.0488 26.0883C22.0488 25.8878 21.9837 25.7208 21.8537 25.5871C21.7236 25.4423 21.548 25.3198 21.3268 25.2196C21.1057 25.1193 20.8455 25.0358 20.5463 24.969C20.2602 24.891 19.9545 24.813 19.6293 24.7351C19.252 24.646 18.8683 24.5457 18.478 24.4344C18.1008 24.323 17.7561 24.1782 17.4439 24C17.1317 23.8218 16.878 23.599 16.6829 23.3317C16.4878 23.0533 16.3902 22.7136 16.3902 22.3126C16.3902 21.6667 16.6439 21.1098 17.1512 20.642C17.6585 20.1742 18.348 19.8624 19.2195 19.7064C19.2325 18.7709 19.2976 18.0859 19.4146 17.6516C19.5447 17.2172 19.7984 17 20.1756 17C20.3967 17 20.5919 17.0613 20.761 17.1838C20.9301 17.3063 21.0276 17.5903 21.0537 18.0358L21.1122 19.673Z" fill="black"/>
</svg>
