<svg width="40" height="40" viewBox="0 0 40 40" fill="none" xmlns="http://www.w3.org/2000/svg">
<path d="M22.2244 12.5823C22.8228 12.6396 23.4472 12.7255 24.0976 12.8401C24.748 12.9356 25.3333 13.0788 25.8537 13.2697C26.4 13.4415 26.8423 13.6706 27.1805 13.957C27.5447 14.2243 27.7268 14.5585 27.7268 14.9594C27.7268 15.2458 27.6098 15.494 27.3756 15.7041C27.1675 15.9141 26.8293 16.0191 26.361 16.0191C26.0228 16.0191 25.6325 15.9809 25.1902 15.9045C24.774 15.8282 24.3057 15.7422 23.7854 15.6468C23.2911 15.5322 22.7447 15.4368 22.1463 15.3604C21.574 15.284 20.9626 15.2458 20.3122 15.2458C19.2195 15.2458 18.322 15.3699 17.6195 15.6181C16.9431 15.8663 16.6049 16.2578 16.6049 16.7924C16.6049 17.0979 16.722 17.3556 16.9561 17.5656C17.2163 17.7757 17.5545 17.9666 17.9707 18.1384C18.413 18.2912 18.9203 18.4248 19.4927 18.5394C20.0911 18.6539 20.7154 18.7685 21.3659 18.8831C22.1724 19.0358 22.9659 19.2076 23.7463 19.3986C24.5528 19.5895 25.2683 19.8568 25.8927 20.2005C26.5171 20.5251 27.0244 20.9451 27.4146 21.4606C27.8049 21.957 28 22.5776 28 23.3222C28 24.5251 27.4667 25.5274 26.4 26.3294C25.3333 27.1122 23.7724 27.6086 21.7171 27.8186V30.0811C21.7171 30.5394 21.665 30.8926 21.561 31.1408C21.4829 31.389 21.3659 31.58 21.2098 31.7136C21.0537 31.8473 20.8715 31.9236 20.6634 31.9427C20.4553 31.9809 20.2211 32 19.961 32C19.7268 32 19.5057 31.9714 19.2976 31.9141C19.0894 31.8759 18.9073 31.7804 18.7512 31.6277C18.5951 31.494 18.465 31.3031 18.361 31.0549C18.2569 30.8067 18.1919 30.4916 18.1659 30.1098V27.9045C17.5154 27.8854 16.826 27.8282 16.0976 27.7327C15.3691 27.6372 14.7057 27.494 14.1073 27.3031C13.5089 27.0931 13.0016 26.8353 12.5854 26.5298C12.1951 26.2053 12 25.8138 12 25.3556C12 24.9737 12.1171 24.6874 12.3512 24.4964C12.6114 24.2864 12.9236 24.1814 13.2878 24.1814C13.574 24.1814 13.8732 24.2482 14.1854 24.3819C14.4976 24.5155 14.8748 24.6587 15.3171 24.8115C15.7593 24.9642 16.2927 25.1074 16.9171 25.2411C17.5415 25.3747 18.3089 25.4415 19.2195 25.4415C19.5577 25.4415 20 25.432 20.5463 25.4129C21.0927 25.3747 21.626 25.2888 22.1463 25.1551C22.6927 25.0215 23.148 24.8401 23.5122 24.611C23.9024 24.3628 24.0976 24.0191 24.0976 23.58C24.0976 23.2363 23.9675 22.9499 23.7073 22.7208C23.4472 22.4726 23.0959 22.2625 22.6537 22.0907C22.2114 21.9189 21.6911 21.7757 21.0927 21.6611C20.5203 21.5274 19.9089 21.3938 19.2585 21.2601C18.5041 21.1074 17.7366 20.9356 16.9561 20.7446C16.2016 20.5537 15.5122 20.3055 14.8878 20C14.2634 19.6945 13.7561 19.3126 13.3659 18.8544C12.9756 18.3771 12.7805 17.7948 12.7805 17.1074C12.7805 16 13.2878 15.0453 14.3024 14.2434C15.3171 13.4415 16.6959 12.9069 18.439 12.6396C18.465 11.0358 18.5951 9.86158 18.8293 9.11694C19.0894 8.37231 19.5967 8 20.3512 8C20.7935 8 21.1837 8.10501 21.522 8.31504C21.8602 8.52506 22.0553 9.01193 22.1073 9.77566L22.2244 12.5823Z" fill="black"/>
</svg>
