<svg width="40" height="40" viewBox="0 0 40 40" fill="none" xmlns="http://www.w3.org/2000/svg">
<path d="M28.3253 8.88706L31.1106 11.6724C32.2487 12.8065 32.2942 14.6201 31.249 15.8105L31.1127 15.9559L27.9027 19.157L27.9069 19.1617L26.4783 20.5903L26.4724 20.5843L16.2182 30.817C15.4607 31.573 14.4342 31.9976 13.364 31.9976H10.0203C8.90451 31.9976 8 31.0931 8 29.9774V26.5893C8 25.5172 8.42606 24.4891 9.18438 23.7312L24.0389 8.88636C25.2232 7.70427 27.1414 7.70459 28.3253 8.88706ZM20.8338 14.9457L10.6125 25.1603C10.2333 25.5392 10.0203 26.0532 10.0203 26.5893V29.4723C10.0203 29.7512 10.2464 29.9774 10.5253 29.9774H13.364C13.8991 29.9774 14.4123 29.7651 14.7911 29.387L25.039 19.1509L20.8338 14.9457ZM25.467 10.3154L22.2631 13.5174L26.4693 17.7236L29.7745 14.424C30.0755 14.0286 30.0451 13.4627 29.682 13.1009L26.8967 10.3156L26.8022 10.2323C26.4052 9.92395 25.8312 9.95183 25.467 10.3154Z" fill="black"/>
</svg>
