<svg width="40" height="40" viewBox="0 0 40 40" fill="none" xmlns="http://www.w3.org/2000/svg">
<path d="M30.9991 8C31.5519 8 32 8.44782 32 9.00023C32 9.27402 31.8877 9.53585 31.6893 9.72464L23.2997 17.7066C23.1013 17.8954 22.989 18.1573 22.989 18.431V30.9998C22.989 31.5522 22.5408 32 21.9881 32C21.7904 32 21.5973 31.9415 21.4328 31.832L17.4292 29.1647C17.1507 28.9792 16.9835 28.6669 16.9835 28.3325V18.4301C16.9835 18.1569 16.8716 17.8955 16.6739 17.7068L8.3096 9.72355C7.90985 9.34201 7.8953 8.70887 8.2771 8.30939C8.46595 8.11179 8.72748 8 9.00091 8H30.9991ZM28.1206 9.99946H11.872C11.7891 9.99946 11.7219 10.0666 11.7219 10.1495C11.7219 10.1905 11.7387 10.2297 11.7683 10.258L18.0565 16.2601C18.6003 16.7791 18.9276 17.4812 18.9784 18.226L18.9853 18.4301V27.6627C18.9853 27.7463 19.0271 27.8244 19.0967 27.8708L20.5981 28.8715C20.713 28.9481 20.8684 28.9171 20.9451 28.8022C20.9725 28.7611 20.9871 28.7128 20.9871 28.6635V18.431C20.9871 17.6781 21.2703 16.9553 21.776 16.4039L21.9194 16.2578L28.2241 10.2581C28.2842 10.201 28.2865 10.106 28.2293 10.046C28.201 10.0163 28.1617 9.99946 28.1206 9.99946Z" fill="black"/>
</svg>
