<svg width="1157" height="257" viewBox="0 0 1157 257" fill="none" xmlns="http://www.w3.org/2000/svg">
<path fill-rule="evenodd" clip-rule="evenodd" d="M332.518 113.234H309.027V111.245C309.027 105.668 307.537 101.841 304.898 99.3806C302.235 96.8971 298.054 95.4796 291.983 95.4796C288.447 95.4796 285.549 96.1732 283.208 97.4672L283.196 97.4736L283.185 97.4798C280.79 98.7631 279.115 100.211 278.039 101.775C276.964 103.339 276.032 105.816 275.355 109.377C274.665 113.004 274.283 115.983 274.188 118.337C274.09 120.786 274.04 124.088 274.04 128.254V136.688C274.14 138.094 274.289 140.407 274.484 143.618C274.777 146.713 275.153 148.762 275.554 149.911C276.139 151.269 276.919 153.013 277.894 155.148C278.87 157.08 279.973 158.256 281.118 158.897L281.164 158.922L281.208 158.951C284.964 161.32 289.235 162.52 294.082 162.52C298.145 162.52 301.483 161.663 304.185 160.045C306.773 158.496 308.896 156.179 310.526 153.001V148.297H297.631V127.011H332.368V161.483L332.209 161.856C328.942 169.51 323.745 175.328 316.641 179.232C309.616 183.092 301.68 185 292.883 185C277.437 185 265.803 180.716 258.492 171.73L258.483 171.719L258.475 171.709C251.378 162.75 248 149.442 248 132.133V119.004C248 104.83 251.747 93.4951 259.485 85.2676C267.238 77.0253 277.909 73 291.234 73C304.562 73 315.45 77.0257 323.685 85.2203C329.69 91.1957 332.518 99.9971 332.518 111.245V113.234ZM434.781 184.105H406.04L385.198 144.716H373.41V184.105H348.57V98.7123C348.57 90.5133 350.466 84.107 354.713 79.9888C358.97 75.7598 365.822 73.8952 374.71 73.8952H392.403C403.433 73.8952 412.387 77.2762 419.029 84.1982C425.727 90.9743 429.039 99.5971 429.039 109.902C429.039 117.434 427.034 124.066 422.968 129.71C419.542 134.499 415.347 138.045 410.386 140.289L434.781 184.105ZM371.411 125.419V103.785C371.411 97.5187 374.51 94.3854 380.707 94.3854H391.053C395.652 94.3854 399.3 95.778 401.999 98.5631C404.798 101.348 406.198 105.028 406.198 109.604C406.198 114.08 404.748 117.86 401.849 120.943C399.05 123.927 395.452 125.419 391.053 125.419H371.411ZM515.501 184.105H475.716C463.611 184.105 454.553 182.071 449.092 177.524L449.075 177.51L449.059 177.495C443.614 172.754 441.179 164.724 441.179 154.066V73.8952H515.501V96.3748H466.019V117.313H500.824L499.002 139.792H466.019V152.574C466.019 156.556 466.941 158.687 468.157 159.706C469.476 160.811 472.285 161.625 477.215 161.625H515.501V184.105ZM616.596 73.8952L583.245 139.026V184.105H558.554V139.026L525.203 73.8952H552.384L571.036 113.944L589.407 73.8952H616.596ZM686.873 176.077L686.866 176.082C679.044 182.077 669.139 185 657.307 185C647.824 185 638.681 182.403 629.903 177.265L629.884 177.254L629.864 177.242C625.357 174.466 621.685 170.583 618.837 165.65L618.833 165.642L618.828 165.634C615.943 160.531 614.523 154.768 614.523 148.396V146.499L637.414 145.415V147.501C637.414 152.186 639.361 155.743 643.405 158.367C647.671 161.136 652.388 162.52 657.607 162.52C663.681 162.52 667.879 161.446 670.513 159.601C673.018 157.846 674.35 155.222 674.35 151.38C674.35 148.215 673.426 145.913 671.749 144.245C670.038 142.542 667.326 141.284 663.349 140.672L645.96 138.882L645.915 138.875C636.91 137.536 629.597 134.315 624.134 129.092C618.535 123.739 615.872 116.141 615.872 106.62C615.872 96.8554 619.803 88.7386 627.548 82.4045C635.263 76.0946 644.933 73 656.407 73C667.942 73 677.431 75.9253 684.673 81.9628C691.934 87.9147 695.592 95.6904 695.592 105.128V107.023L673.369 108.093L673.038 106.405C672.262 102.454 670.589 99.6911 668.147 97.8841C665.675 96.0555 662.182 95.032 657.457 95.032C651.628 95.032 647.305 96.2684 644.265 98.5107C641.264 100.798 639.963 103.335 639.963 106.172C639.963 109.105 640.981 111.31 642.98 112.989C645.143 114.705 647.871 115.824 651.248 116.282L668.342 118.073L668.372 118.077C678.208 119.409 685.86 122.752 691.048 128.319C696.252 133.904 698.741 141.476 698.741 150.783C698.741 161.388 694.8 169.895 686.879 176.072L686.873 176.077ZM793.178 184.105H768.338V141.135H733.201V184.105H708.36V73.8952H733.201V118.805H768.338V73.8952H793.178V184.105ZM885.328 184.105H845.544C833.439 184.105 824.381 182.071 818.92 177.524L818.903 177.51L818.887 177.495C813.442 172.754 811.007 164.724 811.007 154.066V73.8952H885.328V96.3748H835.847V117.313H870.652L868.83 139.792H835.847V152.574C835.847 156.556 836.769 158.687 837.985 159.706C839.304 160.811 842.113 161.625 847.043 161.625H885.328V184.105ZM972.616 184.105H932.831C920.726 184.105 911.668 182.071 906.207 177.524L906.19 177.51L906.174 177.495C900.729 172.754 898.294 164.724 898.294 154.066V73.8952H972.616V96.3748H923.134V117.313H957.939L956.117 139.792H923.134V152.574C923.134 156.556 924.056 158.687 925.272 159.706C926.591 160.811 929.4 161.625 934.33 161.625H972.616V184.105ZM1067 96.3748H1038.36V184.105H1013.52V96.3748H985.031V73.8952H1067V96.3748Z" fill="black"/>
<path d="M1088.33 76.6024H1083V74.2169H1096.56V76.6024H1091.22V91.7831H1088.33V76.6024V76.6024Z" fill="black"/>
<path d="M1100.11 74H1100.33L1106.56 83.5422C1107 84.1928 1107.67 85.2771 1107.67 85.2771C1107.67 85.2771 1108.33 84.1928 1108.78 83.5422L1115 74H1115.22L1117 92H1114.11L1113.22 83.3253C1113.22 82.241 1113 80.506 1113 80.506C1113 80.506 1112.33 82.0241 1111.67 82.8916L1107.67 89.1807H1107.44L1103.44 82.8916C1102.78 82.0241 1101.89 80.506 1101.89 80.506C1101.89 80.506 1101.89 82.241 1101.67 83.3253L1100.78 92H1098.11L1100.11 74Z" fill="black"/>
<path fill-rule="evenodd" clip-rule="evenodd" d="M174.837 86.7681L175.541 87.4801L195.963 67.2318L195.247 66.5217C178.788 50.2029 156.152 40 131 40C80.7071 40 40 80.3479 40 130.233C40 161.982 56.6757 189.976 81.6864 205.964L102.968 184.95C82.7289 174.939 68.9096 154.106 68.9096 130.233C68.9096 96.266 96.7201 68.6802 131 68.6802C148.142 68.6802 163.716 75.5218 174.837 86.7681ZM83.4025 207.027C83.1925 206.901 82.9832 206.775 82.7744 206.649L83.3948 207.033L83.4025 207.027Z" fill="black"/>
<path fill-rule="evenodd" clip-rule="evenodd" d="M147.864 115.781H222V189.526H193.09V165.142L163.27 194.709C157.422 200.506 147.995 200.506 142.147 194.709L140.326 192.903C139.163 191.75 137.29 191.742 136.118 192.886L116.174 212.344C112.515 215.914 107.201 217.495 102.259 215.823C95.3788 213.494 88.8215 210.313 82.7681 206.645L81.6704 205.98L127.677 160.553C133.527 154.777 142.938 154.786 148.777 160.575L150.37 162.155C151.54 163.314 153.425 163.314 154.595 162.155L172.44 144.461H147.864V115.781Z" fill="black"/>
</svg>
