<svg width="40" height="40" viewBox="0 0 40 40" fill="none" xmlns="http://www.w3.org/2000/svg">
<path fill-rule="evenodd" clip-rule="evenodd" d="M20 32C26.6274 32 32 26.6274 32 20C32 13.3726 26.6274 8 20 8C13.3726 8 8 13.3726 8 20C8 26.6274 13.3726 32 20 32ZM17.5913 26.4775H22.4812V24.1898H21.6429V17.7456H17.5913V20.0159H18.3248V24.1898H17.5913V26.4775ZM18.2025 14.5846C18.121 14.7942 18.0803 14.9979 18.0803 15.1959C18.0803 15.4054 18.1269 15.615 18.22 15.8246C18.3132 16.0341 18.4441 16.2233 18.6129 16.3921C18.7818 16.561 18.9797 16.6978 19.2067 16.8025C19.4338 16.9073 19.687 16.9597 19.9664 16.9597C20.5951 16.9597 21.0724 16.788 21.3984 16.4445C21.7244 16.1011 21.8874 15.6849 21.8874 15.1959C21.8874 14.9979 21.8438 14.7942 21.7564 14.5846C21.6691 14.3751 21.544 14.183 21.381 14.0083C21.218 13.8337 21.0171 13.6911 20.7785 13.5805C20.5398 13.4699 20.2691 13.4146 19.9664 13.4146C19.6637 13.4146 19.393 13.4699 19.1543 13.5805C18.9157 13.6911 18.7177 13.8337 18.5606 14.0083C18.4034 14.183 18.284 14.3751 18.2025 14.5846Z" fill="black"/>
</svg>
