<svg width="40" height="40" viewBox="0 0 40 40" fill="none" xmlns="http://www.w3.org/2000/svg">
<path fill-rule="evenodd" clip-rule="evenodd" d="M25.5034 8H14.4966C10.9143 8 8 10.9143 8 14.4966V25.5036C8 29.0857 10.9143 32 14.4966 32H25.5036C29.0857 32 32 29.0857 32 25.5036V14.4966C32 10.9143 29.0857 8 25.5034 8ZM30 25.5036C30 28.3098 28.31 30 25.5036 30H14.5C11.6935 30 10 28.3062 10 25.5V14.5C10 11.6935 11.6901 10 14.4966 10H25.5C28.3062 10 30 11.6935 30 14.5V25.5036ZM19.9998 13.0463C15.9996 13.0926 13 16 13 20C13 24 16 27 20 27C24 27 27 24 27 20C27 16 24 13 19.9998 13.0463ZM19.9998 25.1554C17.1573 25.1554 15 22.8428 15 20C15 17.1575 17.1573 14.8447 19.9998 14.8447C22.8425 14.8447 25 17.1575 25 20C25 22.8428 22.8425 25.1554 19.9998 25.1554ZM24.7803 13.0463C24.7803 11.9771 25.65 11.1072 26.7194 11.1072C27.7887 11.1072 28.6586 11.9769 28.6586 13.0463C28.6586 14.1156 27.7887 14.9855 26.7194 14.9855C25.65 14.9855 24.7803 14.1156 24.7803 13.0463ZM26.1873 13.0463C26.1873 13.3396 26.426 13.5784 26.7194 13.5784C27.0129 13.5784 27.2516 13.3396 27.2516 13.0463C27.2516 12.7527 27.0129 12.5142 26.7194 12.5142C26.426 12.5142 26.1873 12.7527 26.1873 13.0463Z" fill="black"/>
</svg>
