<svg width="40" height="40" viewBox="0 0 40 40" fill="none" xmlns="http://www.w3.org/2000/svg">
<path fill-rule="evenodd" clip-rule="evenodd" d="M18 9.5C18 8.98707 18.1478 8.47165 18.4009 8H10C8.89543 8 8 8.89543 8 10V30C8 31.1046 8.89543 32 10 32H30C31.1046 32 32 31.1046 32 30V20.5891C31.5284 20.848 31.0129 21 30.5 21C28.7642 21 27 19.7358 27 18V17.5L17.3652 27.0795C16.1378 28.3068 14.1479 28.3068 12.9205 27.0795C11.6932 25.8521 11.6932 23.8622 12.9205 22.6348L22.5 13H21.5C19.7642 13 18 11.2358 18 9.5ZM20 9.5C20 10.3284 20.6716 11 21.5 11H26.8787L14.4393 23.4393C13.8536 24.0251 13.8536 24.9749 14.4393 25.5607C15.0251 26.1464 15.9749 26.1464 16.5607 25.5607L29 13.1213V17.5C29 18.3284 29.6716 19 30.5 19C31.3284 19 32 18.3284 32 17.5V9.5C32 8.67157 31.3284 8 30.5 8H21.5C20.6716 8 20 8.67157 20 9.5Z" fill="black"/>
</svg>
