<svg width="40" height="40" viewBox="0 0 40 40" fill="none" xmlns="http://www.w3.org/2000/svg">
<path d="M21.4583 26.6006C21.5 26.826 21.4583 27.0506 21.2917 27.2381C21.125 27.4255 20.9167 27.5005 20.6667 27.5005H19.3333C19.0833 27.5005 18.8333 27.3884 18.7083 27.2381C18.5417 27.0506 18.5 26.826 18.5417 26.6006L19.0417 24.1634C18.625 23.9013 18.3333 23.4885 18.3333 22.964C18.3333 22.139 19.0833 21.4641 20 21.4641C20.9167 21.4641 21.6667 22.139 21.6667 22.964C21.6667 23.4514 21.375 23.8635 20.9583 24.1634L21.4583 26.6006ZM26.9167 18.5391L27.9167 16.0644C29.1667 12.9526 27.375 9.50268 23.9167 8.37781C20.5 7.21545 16.6667 8.82813 15.4167 11.9399L14.8333 13.3647C14.6667 13.7397 14.7083 14.1521 14.875 14.5271C15.0417 14.902 15.4167 15.1645 15.8333 15.3145C16.7083 15.6145 17.6667 15.2024 17.9583 14.4146L18.5417 12.9898C19.1667 11.415 21.0833 10.6275 22.7917 11.19C24.5 11.7524 25.4167 13.4772 24.7917 15.052L23.375 18.5016H13.3333C11.5 18.5016 10 19.8514 10 21.5013V26.0007C10 29.3003 13 32 16.6667 32H23.3333C27 32 30 29.3003 30 26.0007V21.5013C30 19.9264 28.6667 18.6516 26.9167 18.5391Z" fill="black"/>
</svg>
