<svg width="40" height="40" viewBox="0 0 40 40" fill="none" xmlns="http://www.w3.org/2000/svg">
<path fill-rule="evenodd" clip-rule="evenodd" d="M8 19.6509C8 14.8731 11.8731 11 16.6509 11H23.3491C28.1269 11 32 14.8731 32 19.6509C32 24.4286 28.1269 28.3018 23.3491 28.3018H22.1667L15.9707 31.7414C14.6377 32.4814 13 31.5174 13 29.9927V27.4959C10.0468 26.1192 8 23.1241 8 19.6509ZM10 19.6509C10 15.9973 12.9618 13.0355 16.6154 13.0355H23.3846C27.0382 13.0355 30 15.9973 30 19.6509C30 23.3045 27.0382 26.2663 23.3846 26.2663H21.3638L15.7442 29.4119C15.4109 29.5985 15 29.3576 15 28.9756V26.0676C12.1272 25.3467 10 22.7472 10 19.6509Z" fill="black"/>
</svg>
