<svg width="40" height="40" viewBox="0 0 40 40" fill="none" xmlns="http://www.w3.org/2000/svg">
<path fill-rule="evenodd" clip-rule="evenodd" d="M31.0489 9H14.214C13.6887 9 13.2628 9.42577 13.2628 9.95114V18.9234H11.5826C9.60706 18.9234 8 20.5308 8 22.506V27.8005C8 29.776 9.60706 31.3831 11.5826 31.3831C11.7442 31.3831 11.9034 31.3723 12.0591 31.3514H27.7517C30.094 31.3514 32 29.4457 32 27.1031V9.95114C32 9.42577 31.5742 9 31.0489 9ZM13.2629 27.8005C13.2629 28.6156 12.6792 29.2973 11.9079 29.4491H11.5826V29.4808C10.6559 29.4808 9.90228 28.7269 9.90228 27.8005V22.506C9.90228 21.5796 10.6562 20.8256 11.5826 20.8256H13.2629V27.8005H13.2629ZM30.0978 27.103C30.0978 28.3747 29.0236 29.4491 27.7517 29.4491H14.7628C15.0199 28.9555 15.1651 28.3946 15.1651 27.8005V10.9022H30.0978V27.103ZM18.4941 14.9604H24.4545C24.9798 14.9604 25.4056 15.3862 25.4056 15.9116C25.4056 16.437 24.9802 16.8627 24.4545 16.8627H18.4941C17.9687 16.8627 17.543 16.4369 17.543 15.9116C17.543 15.3862 17.9688 14.9604 18.4941 14.9604ZM18.4941 19.5571H26.7372C27.2625 19.5571 27.6883 19.9829 27.6883 20.5083C27.6883 21.0337 27.2625 21.4594 26.7372 21.4594H18.4941C17.9687 21.4594 17.543 21.0336 17.543 20.5083C17.543 19.9829 17.9688 19.5571 18.4941 19.5571ZM18.4941 23.8696H24.4545C24.9798 23.8696 25.4056 24.2954 25.4056 24.8208C25.4056 25.3461 24.9802 25.7719 24.4545 25.7719H18.4941C17.9687 25.7719 17.543 25.3461 17.543 24.8208C17.543 24.2954 17.9688 23.8696 18.4941 23.8696Z" fill="black"/>
</svg>
