<svg width="40" height="40" viewBox="0 0 40 40" fill="none" xmlns="http://www.w3.org/2000/svg">
<path fill-rule="evenodd" clip-rule="evenodd" d="M31.9121 19.4829C31.8559 19.5579 31.7796 19.6 31.7 19.6C29.8992 19.6 29 21.6615 29 23.2C29 24.7385 29.8992 26.8 31.7 26.8C31.7796 26.8 31.8559 26.8422 31.9121 26.9172C31.9684 26.9922 32 27.0939 32 27.2V31.6C32 31.7061 31.9684 31.8078 31.9121 31.8828C31.8559 31.9579 31.7796 32 31.7 32H16.4C16.3534 32 16.3075 31.9855 16.2658 31.9578C16.2242 31.93 16.1879 31.8897 16.16 31.84L15.5 30.6666L14.84 31.84C14.8121 31.8897 14.7758 31.93 14.7342 31.9578C14.6925 31.9855 14.6466 32 14.6 32H8.3C8.22044 32 8.14413 31.9579 8.08787 31.8828C8.03161 31.8078 8 31.7061 8 31.6V27.2C8 27.0939 8.03161 26.9922 8.08787 26.9172C8.14413 26.8422 8.22044 26.8 8.3 26.8C10.1008 26.8 11 24.7385 11 23.2C11 21.6615 10.1008 19.6 8.3 19.6C8.22044 19.6 8.14413 19.5579 8.08787 19.4829C8.03161 19.4079 8 19.3061 8 19.2V14.8C8.00332 14.7134 8.02627 14.6301 8.06581 14.5612C8.10535 14.4922 8.15963 14.4409 8.22149 14.4139L25.9215 8.01394C25.966 7.99786 26.0127 7.99566 26.0579 8.00751C26.1031 8.01937 26.1457 8.04497 26.1823 8.08231C26.2189 8.11966 26.2486 8.16775 26.269 8.22286C26.2894 8.27796 26.3 8.3386 26.3 8.40006V14.4H31.7C31.7796 14.4 31.8559 14.4422 31.9121 14.5172C31.9684 14.5922 32 14.694 32 14.8V19.2C32 19.3061 31.9684 19.4079 31.9121 19.4829ZM16.4 14.4H24.5V10.5L13 14.4H14.6C14.6466 14.4 14.6925 14.4145 14.7342 14.4423C14.7758 14.47 14.8121 14.5104 14.84 14.56L15.5 15.7334L16.16 14.56C16.1879 14.5104 16.2242 14.47 16.2658 14.4423C16.3075 14.4145 16.3534 14.4 16.4 14.4ZM27 23.2C27 18.8 30 18 30 18V16H17C16.6639 16.3599 16.0618 17 15.5 17C14.9382 17 14.3361 16.3599 14 16H10V18C10 18 13 18.5172 13 23.2C13 27.8828 10 28 10 28V30H14C14.3048 29.5528 14.8357 29 15.5 29C16.1643 29 16.6952 29.5528 17 30H30V28C30 28 27 27.6 27 23.2ZM15.5002 18.4C15.4206 18.4 15.3443 18.4421 15.2881 18.5172C15.2318 18.5922 15.2002 18.6939 15.2002 18.8V19.6C15.2002 19.7061 15.2318 19.8078 15.2881 19.8828C15.3443 19.9579 15.4206 20 15.5002 20C15.5798 20 15.6561 19.9579 15.7123 19.8828C15.7686 19.8078 15.8002 19.7061 15.8002 19.6V18.8C15.8002 18.6939 15.7686 18.5922 15.7123 18.5172C15.6561 18.4421 15.5798 18.4 15.5002 18.4ZM15.2881 20.9172C15.3443 20.8422 15.4206 20.8 15.5002 20.8C15.5798 20.8 15.6561 20.8422 15.7123 20.9172C15.7686 20.9922 15.8002 21.094 15.8002 21.2V22C15.8002 22.1061 15.7686 22.2079 15.7123 22.2829C15.6561 22.3579 15.5798 22.4 15.5002 22.4C15.4206 22.4 15.3443 22.3579 15.2881 22.2829C15.2318 22.2079 15.2002 22.1061 15.2002 22V21.2C15.2002 21.094 15.2318 20.9922 15.2881 20.9172ZM15.5002 23.4C15.4206 23.4 15.3443 23.4422 15.2881 23.5172C15.2318 23.5922 15.2002 23.6939 15.2002 23.8V24.6C15.2002 24.7061 15.2318 24.8078 15.2881 24.8828C15.3443 24.9579 15.4206 25 15.5002 25C15.5798 25 15.6561 24.9579 15.7123 24.8828C15.7686 24.8078 15.8002 24.7061 15.8002 24.6V23.8C15.8002 23.6939 15.7686 23.5922 15.7123 23.5172C15.6561 23.4422 15.5798 23.4 15.5002 23.4ZM15.2881 26.5172C15.3443 26.4421 15.4206 26.4 15.5002 26.4C15.5798 26.4 15.6561 26.4421 15.7123 26.5172C15.7686 26.5922 15.8002 26.6939 15.8002 26.8V27.6C15.8002 27.7061 15.7686 27.8078 15.7123 27.8828C15.6561 27.9579 15.5798 28 15.5002 28C15.4206 28 15.3443 27.9579 15.2881 27.8828C15.2318 27.8078 15.2002 27.7061 15.2002 27.6V26.8C15.2002 26.6939 15.2318 26.5922 15.2881 26.5172Z" fill="black"/>
</svg>
