<svg width="40" height="40" viewBox="0 0 40 40" fill="none" xmlns="http://www.w3.org/2000/svg">
<path fill-rule="evenodd" clip-rule="evenodd" d="M8.75 15.7374V12.7778V12.3588C8.75 12.3353 8.75108 12.3117 8.75319 12.2879C8.76018 12.2045 8.77894 12.1244 8.80787 12.0484C8.9095 11.7713 9.13651 11.5246 9.42065 11.4706C10.7381 11.2153 12.0373 10.9098 13.3101 10.4814C13.8249 10.3065 14.3343 10.1147 14.8375 9.90622C14.8654 9.89417 14.8933 9.88217 14.9212 9.87036C15.6396 9.55998 16.3432 9.2169 17.0295 8.84114C17.4617 8.60292 17.8876 8.35206 18.3071 8.08981C18.3905 8.03584 18.4733 7.98044 18.5561 7.92501L18.5561 7.92499C18.7092 7.82246 18.8628 7.71974 19.0212 7.62552C19.1598 7.54101 19.3207 7.4995 19.4818 7.5C19.643 7.4995 19.8038 7.54101 19.9424 7.62552C20.1009 7.71974 20.2543 7.82246 20.4074 7.92499C20.4903 7.98044 20.573 8.03586 20.6565 8.08985C21.0759 8.35205 21.5017 8.60287 21.9339 8.84105C22.6203 9.21685 23.3239 9.55995 24.0424 9.87036C24.0703 9.88217 24.0981 9.89417 24.126 9.90622C24.6292 10.1147 25.1387 10.3065 25.6535 10.4814C26.9262 10.9098 28.2255 11.2154 29.5429 11.4706C29.827 11.5246 30.054 11.7713 30.1556 12.0483C30.1849 12.1252 30.2037 12.2061 30.2106 12.2904C30.2125 12.3134 30.2135 12.3362 30.2135 12.3588V12.7778V15.7374L30.2134 15.7527V16.1064V18.4625L30.2135 18.5963C30.2138 19.1312 30.2142 19.6641 30.1612 20.1993C30.0151 21.654 29.6158 23.0482 28.9478 24.3475C28.3241 25.5572 27.4604 26.6693 26.4374 27.5601C25.6885 28.2137 24.8691 28.7487 23.9871 29.1994C23.6549 29.3697 23.3228 29.5394 22.9906 29.7091L22.9897 29.7095L22.9888 29.71L22.9879 29.7105L22.985 29.712L22.9778 29.7156C22.6462 29.885 22.3146 30.0545 21.9829 30.2246L21.4525 30.4955C21.4383 30.504 21.4238 30.5121 21.409 30.5197C21.3754 30.5357 21.3423 30.552 21.3094 30.5685L21.2233 30.6124L21.148 30.6515C20.9713 30.7421 20.7939 30.8326 20.6165 30.9232L20.6155 30.9237L20.614 30.9245C20.436 31.0153 20.258 31.1062 20.0807 31.197L19.9555 31.2603L19.9528 31.2616L19.9449 31.2656C19.8314 31.3208 19.7132 31.3665 19.589 31.3842C19.5542 31.3893 19.5189 31.3921 19.4831 31.3921L19.4818 31.3921L19.4804 31.3921C19.4446 31.3921 19.4093 31.3893 19.3745 31.3842C19.2503 31.3665 19.1321 31.3208 19.0186 31.2656L19.0108 31.2616L19.0081 31.2603L18.8828 31.197C18.7055 31.1062 18.5275 31.0153 18.3495 30.9245L18.348 30.9237L18.3457 30.9225C18.1687 30.8321 17.9918 30.7418 17.8155 30.6515L17.7406 30.6126L17.654 30.5684C17.6211 30.5519 17.588 30.5356 17.5546 30.5197C17.5397 30.5121 17.5252 30.5041 17.511 30.4955L16.9806 30.2246C16.6478 30.0539 16.315 29.8838 15.9822 29.7138L15.9785 29.712L15.9757 29.7105C15.6426 29.5403 15.3095 29.3702 14.9765 29.1994C14.0944 28.7487 13.2751 28.2137 12.5261 27.5601C11.5032 26.6693 10.6394 25.5572 10.0157 24.3475C9.34771 23.0482 8.94845 21.654 8.80231 20.1993C8.74932 19.6641 8.74969 19.1312 8.75006 18.5963L8.75012 18.4625V16.1064V15.7528L8.75 15.7374ZM10.5794 13.1235V13.3524V17.3925C10.5794 17.605 10.5774 17.8183 10.5755 18.0319V18.032V18.032L10.5755 18.032C10.5681 18.8412 10.5606 19.6563 10.6591 20.4578C10.7785 21.2445 10.9889 22.0175 11.2831 22.7567C11.3004 22.8002 11.3183 22.8442 11.3362 22.8874C11.3195 22.8445 11.3019 22.8015 11.2839 22.7586C11.6061 23.5112 12.0156 24.2201 12.5042 24.875C12.9852 25.4859 13.5339 26.0396 14.1373 26.5247C14.6444 26.9099 15.1861 27.2433 15.7515 27.5338C16.5209 27.9236 17.2878 28.3161 18.0546 28.7086L18.0557 28.7092C18.3691 28.8694 18.6832 29.0296 18.9973 29.1899L19 29.1913L19.4818 29.4371L19.9635 29.1913L19.9663 29.1899C20.2803 29.0296 20.5944 28.8694 20.9078 28.7092L20.9089 28.7086C21.6757 28.3161 22.4426 27.9236 23.212 27.5338C23.7774 27.2433 24.3192 26.9099 24.8262 26.5247C25.4296 26.0396 25.9783 25.4859 26.4594 24.875C26.948 24.2201 27.3575 23.5112 27.6796 22.7586C27.6617 22.8015 27.6441 22.8445 27.6274 22.8874C27.6453 22.8442 27.6631 22.8002 27.6804 22.7567C27.9746 22.0175 28.185 21.2445 28.3044 20.4578C28.403 19.6563 28.3955 18.8413 28.388 18.0321V18.0321V18.0321V18.032C28.3861 17.8183 28.3841 17.605 28.3841 17.3925V13.3524V13.1235C28.1269 13.0722 27.8699 13.0186 27.6144 12.9597C27.1586 12.855 26.7053 12.7374 26.2554 12.6072C26.0527 12.5495 25.8506 12.4888 25.6493 12.4247C24.128 11.9424 22.6432 11.3152 21.234 10.5614C20.6359 10.2428 20.0522 9.89826 19.4818 9.53026C18.9113 9.89826 18.3277 10.2428 17.7295 10.5614C16.3204 11.3152 14.8356 11.9424 13.3142 12.4247C13.1129 12.4888 12.9109 12.5495 12.7081 12.6072C12.2582 12.7374 11.805 12.855 11.3491 12.9597C11.0936 13.0186 10.8367 13.0722 10.5794 13.1235ZM18.25 21.3126L22.9197 16.0369C23.7746 15.243 25.0569 16.0368 24.237 17.0317L19.1842 22.7361C18.9226 23.0315 18.5796 23.1792 18.2368 23.1792C17.894 23.1792 17.551 23.0314 17.2894 22.7361L14.763 19.8839C13.9431 18.8145 15.2254 18.0209 16.0804 19.2112L18.25 21.3126Z" fill="black"/>
</svg>
