<svg width="40" height="40" viewBox="0 0 40 40" fill="none" xmlns="http://www.w3.org/2000/svg">
<path d="M27.9121 21.0547H9.20025C8.88192 21.0547 8.57663 20.9493 8.35154 20.7618C8.12645 20.5743 8 20.3199 8 20.0547C8 19.7895 8.12645 19.5351 8.35154 19.3476C8.57663 19.1601 8.88192 19.0547 9.20025 19.0547H27.9121L21.5508 13.7547C21.426 13.6643 21.3249 13.5534 21.254 13.4289C21.1831 13.3044 21.1438 13.1691 21.1386 13.0313C21.1334 12.8936 21.1624 12.7565 21.2239 12.6286C21.2853 12.5006 21.3778 12.3846 21.4956 12.2879C21.6134 12.1912 21.7539 12.1157 21.9083 12.0664C22.0627 12.017 22.2277 11.9948 22.3929 12.001C22.5581 12.0073 22.72 12.042 22.8684 12.1028C23.0167 12.1637 23.1484 12.2494 23.2552 12.3547L31.6569 19.3547C31.8768 19.5416 32 19.7929 32 20.0547C32 20.3165 31.8768 20.5678 31.6569 20.7547L23.2552 27.7547C23.027 27.92 22.7323 28.0074 22.4301 27.9995C22.1279 27.9916 21.8404 27.889 21.625 27.7121C21.4097 27.5352 21.2825 27.2972 21.2687 27.0455C21.2549 26.7939 21.3557 26.5471 21.5508 26.3547L27.9121 21.0547V21.0547Z" fill="black"/>
</svg>
