<svg width="40" height="40" viewBox="0 0 40 40" fill="none" xmlns="http://www.w3.org/2000/svg">
<path d="M17 23C18.6569 23 20 24.3431 20 26C20 27.6569 18.6569 29 17 29C15.3431 29 14 27.6569 14 26C14 24.3431 15.3431 23 17 23ZM9 25L13.126 25.0002C13.0437 25.3198 13 25.6548 13 26C13 26.3456 13.0438 26.6809 13.1262 27.0008L9 27C8.44772 27 8 26.5523 8 26C8 25.4477 8.44772 25 9 25ZM31 25C31.5523 25 32 25.4477 32 26C32 26.5523 31.5523 27 31 27L20.8738 27.0008C20.9562 26.6809 21 26.3456 21 26C21 25.6548 20.9563 25.3198 20.874 25.0002L31 25ZM17 25C16.4477 25 16 25.4477 16 26C16 26.5523 16.4477 27 17 27C17.5523 27 18 26.5523 18 26C18 25.4477 17.5523 25 17 25ZM25 17C26.6569 17 28 18.3431 28 20C28 21.6569 26.6569 23 25 23C23.3431 23 22 21.6569 22 20C22 18.3431 23.3431 17 25 17ZM9 19L21.126 19.0002C21.0437 19.3198 21 19.6548 21 20C21 20.3456 21.0438 20.6809 21.1262 21.0008L9 21C8.44772 21 8 20.5523 8 20C8 19.4477 8.44772 19 9 19ZM31 19C31.5523 19 32 19.4477 32 20C32 20.5523 31.5523 21 31 21L28.8738 21.0008C28.9562 20.6809 29 20.3456 29 20C29 19.6548 28.9563 19.3198 28.874 19.0002L31 19ZM25 19C24.4477 19 24 19.4477 24 20C24 20.5523 24.4477 21 25 21C25.5523 21 26 20.5523 26 20C26 19.4477 25.5523 19 25 19ZM14 11C15.6569 11 17 12.3431 17 14C17 15.6569 15.6569 17 14 17C12.3431 17 11 15.6569 11 14C11 12.3431 12.3431 11 14 11ZM9 13L10.126 13.0001C10.0437 13.3197 10 13.6547 10 14C10 14.3456 10.0438 14.6809 10.1262 15.0008L9 15C8.44772 15 8 14.5523 8 14C8 13.4477 8.44772 13 9 13ZM31 13C31.5523 13 32 13.4477 32 14C32 14.5523 31.5523 15 31 15L17.8738 15.0008C17.9562 14.6809 18 14.3456 18 14C18 13.6547 17.9563 13.3197 17.874 13.0001L31 13ZM14 13C13.4477 13 13 13.4477 13 14C13 14.5523 13.4477 15 14 15C14.5523 15 15 14.5523 15 14C15 13.4477 14.5523 13 14 13Z" fill="black"/>
</svg>
