<svg width="40" height="40" viewBox="0 0 40 40" fill="none" xmlns="http://www.w3.org/2000/svg">
<path d="M24.8999 14.9999L27 15.0001C28.6569 15.0001 30 16.3433 30 18.0001V29.0001C30 30.657 28.6569 32.0001 27 32.0001H13C11.3431 32.0001 10 30.657 10 29.0001V18.0001C10 16.3433 11.3431 15.0001 13 15.0001H15.101C15.5669 15.0518 15.9387 15.4185 15.9931 15.8823L16 16.0001C16 16.513 15.614 16.9356 15.1166 16.9934L15.015 16.999L13 17.0001C12.4872 17.0001 12.0645 17.3862 12.0067 17.8835L12 18.0001V29.0001C12 29.513 12.386 29.9356 12.8834 29.9934L13 30.0001H27C27.5128 30.0001 27.9355 29.6141 27.9933 29.1167L28 29.0001V18.0001C28 17.4873 27.614 17.0646 27.1166 17.0069L27 17.0001H24.906C24.438 16.9531 24.062 16.585 24.0069 16.1186L24 16.0001C24 15.4873 24.386 15.0646 24.8834 15.0069L25 15.0001L24.901 15.0049C24.9006 15.0032 24.9003 15.0016 24.8999 14.9999ZM19.8928 8C20.1344 8 20.356 8.08571 20.5289 8.22838L20.6112 8.30424L24.1496 11.8426C24.5401 12.2332 24.5401 12.8663 24.1496 13.2569C23.7591 13.6474 23.1259 13.6474 22.7354 13.2569L20.8918 11.413L20.8928 21C20.8928 21.5523 20.4451 22 19.8928 22C19.3405 22 18.8928 21.5523 18.8928 21L18.8918 11.364L16.9999 13.2569C16.6094 13.6474 15.9762 13.6474 15.5857 13.2569C15.1951 12.8663 15.1951 12.2332 15.5857 11.8426L19.1212 8.30711C19.2717 8.15665 19.4581 8.06416 19.6529 8.02963C19.73 8.01 19.8102 8 19.8928 8Z" fill="black"/>
</svg>
