<svg width="40" height="40" viewBox="0 0 40 40" fill="none" xmlns="http://www.w3.org/2000/svg">
<path d="M29.5934 15.9458C29.5934 15.5906 29.7202 15.2499 29.9459 14.9988C30.1715 14.7476 30.4776 14.6065 30.7967 14.6065C31.1158 14.6065 31.4219 14.7476 31.6476 14.9988C31.8732 15.2499 32 15.5906 32 15.9458V26.6606C32 27.0159 31.8732 27.3565 31.6476 27.6077C31.4219 27.8589 31.1158 28 30.7967 28H21.1704C20.8512 28 20.5452 27.8589 20.3195 27.6077C20.0939 27.3565 19.9671 27.0159 19.9671 26.6606C19.9671 26.3054 20.0939 25.9648 20.3195 25.7136C20.5452 25.4624 20.8512 25.3213 21.1704 25.3213H27.8968L21.1704 17.8343L17.1995 22.2542C16.9746 22.4996 16.6722 22.637 16.3572 22.637C16.0423 22.637 15.7398 22.4996 15.5149 22.2542L8.29517 14.2181C8.09629 13.9634 7.99109 13.6346 8.00059 13.2974C8.01009 12.9601 8.1336 12.6393 8.34642 12.399C8.55925 12.1588 8.8457 12.0167 9.14852 12.0014C9.45134 11.986 9.74821 12.0985 9.97978 12.3162L16.3572 19.4281L20.3281 15.0083C20.553 14.7629 20.8554 14.6254 21.1704 14.6254C21.4853 14.6254 21.7878 14.7629 22.0127 15.0083L29.5934 23.4462V15.9458Z" fill="black"/>
</svg>
