<svg width="40" height="40" viewBox="0 0 40 40" fill="none" xmlns="http://www.w3.org/2000/svg">
<path d="M29.5934 24.0542C29.5934 24.4094 29.7202 24.7501 29.9459 25.0012C30.1715 25.2524 30.4776 25.3935 30.7967 25.3935C31.1158 25.3935 31.4219 25.2524 31.6476 25.0012C31.8732 24.7501 32 24.4094 32 24.0542V13.3394C32 12.9841 31.8732 12.6435 31.6476 12.3923C31.4219 12.1411 31.1158 12 30.7967 12H21.1704C20.8512 12 20.5452 12.1411 20.3195 12.3923C20.0939 12.6435 19.9671 12.9841 19.9671 13.3394C19.9671 13.6946 20.0939 14.0352 20.3195 14.2864C20.5452 14.5376 20.8512 14.6787 21.1704 14.6787H27.8968L21.1704 22.1657L17.1995 17.7458C16.9746 17.5004 16.6722 17.363 16.3572 17.363C16.0423 17.363 15.7398 17.5004 15.5149 17.7458L8.29517 25.7819C8.09629 26.0366 7.99109 26.3654 8.00059 26.7026C8.01009 27.0399 8.1336 27.3607 8.34642 27.601C8.55925 27.8412 8.8457 27.9833 9.14852 27.9986C9.45134 28.014 9.74821 27.9015 9.97978 27.6838L16.3572 20.5719L20.3281 24.9917C20.553 25.2371 20.8554 25.3746 21.1704 25.3746C21.4853 25.3746 21.7878 25.2371 22.0127 24.9917L29.5934 16.5538V24.0542Z" fill="black"/>
</svg>
