<svg width="40" height="40" viewBox="0 0 40 40" fill="none" xmlns="http://www.w3.org/2000/svg">
<path fill-rule="evenodd" clip-rule="evenodd" d="M30 20C30 25.5228 25.5228 30 20 30C14.4772 30 10 25.5228 10 20C10 14.4772 14.4772 10 20 10C25.5228 10 30 14.4772 30 20ZM32 20C32 26.6274 26.6274 32 20 32C13.3726 32 8 26.6274 8 20C8 13.3726 13.3726 8 20 8C26.6274 8 32 13.3726 32 20ZM22.561 15.2267C22.1545 15.1504 21.7642 15.0931 21.3902 15.0549L21.3171 13.1838C21.2846 12.6746 21.1626 12.35 20.9512 12.21C20.7398 12.07 20.4959 12 20.2195 12C19.748 12 19.4309 12.2482 19.2683 12.7446C19.122 13.2411 19.0407 14.0239 19.0244 15.0931C17.935 15.2713 17.0732 15.6277 16.439 16.1623C15.8049 16.6969 15.4878 17.3333 15.4878 18.0716C15.4878 18.5298 15.6098 18.9181 15.8537 19.2363C16.0976 19.5418 16.4146 19.7963 16.8049 20C17.1951 20.2037 17.626 20.3691 18.0976 20.4964C18.5854 20.6237 19.065 20.7383 19.5366 20.8401C19.9431 20.9292 20.3252 21.0183 20.6829 21.1074C21.0569 21.1838 21.3821 21.2792 21.6585 21.3938C21.935 21.5084 22.1545 21.6484 22.3171 21.8138C22.4797 21.9666 22.561 22.1575 22.561 22.3866C22.561 22.6794 22.439 22.9085 22.1951 23.074C21.9675 23.2267 21.6829 23.3477 21.3415 23.4368C21.0163 23.5259 20.6829 23.5831 20.3415 23.6086C20 23.6213 19.7236 23.6277 19.5122 23.6277C18.9431 23.6277 18.4634 23.5831 18.0732 23.494C17.6829 23.4049 17.3496 23.3095 17.0732 23.2076C16.7967 23.1058 16.561 23.0103 16.3659 22.9212C16.1707 22.8321 15.9837 22.7876 15.8049 22.7876C15.5772 22.7876 15.3821 22.8576 15.2195 22.9976C15.0732 23.1249 15 23.3158 15 23.5704C15 23.8759 15.122 24.1368 15.3659 24.3532C15.626 24.5569 15.9431 24.7287 16.3171 24.8687C16.6911 24.996 17.1057 25.0915 17.561 25.1551C18.0163 25.2188 18.4472 25.257 18.8537 25.2697V26.7399C18.8699 26.9944 18.9106 27.2045 18.9756 27.3699C19.0407 27.5354 19.122 27.6627 19.2195 27.7518C19.3171 27.8536 19.4309 27.9173 19.561 27.9427C19.6911 27.9809 19.8293 28 19.9756 28C20.1382 28 20.2846 27.9873 20.4146 27.9618C20.5447 27.9491 20.6585 27.8982 20.7561 27.8091C20.8537 27.72 20.9268 27.5927 20.9756 27.4272C21.0407 27.2617 21.0732 27.0263 21.0732 26.7208V25.2124C22.3577 25.0724 23.3333 24.7414 24 24.2196C24.6667 23.685 25 23.0167 25 22.2148C25 21.7184 24.878 21.3047 24.6341 20.9737C24.3902 20.6301 24.0732 20.35 23.6829 20.1337C23.2927 19.9045 22.8455 19.7263 22.3415 19.599C21.8537 19.4718 21.3577 19.3572 20.8537 19.2554C20.4472 19.179 20.0569 19.1026 19.6829 19.0263C19.3252 18.9499 19.0081 18.8608 18.7317 18.759C18.4715 18.6444 18.2602 18.5171 18.0976 18.3771C17.9512 18.2371 17.878 18.0652 17.878 17.8616C17.878 17.5052 18.0894 17.2442 18.5122 17.0788C18.9512 16.9133 19.5122 16.8305 20.1951 16.8305C20.6016 16.8305 20.9837 16.856 21.3415 16.9069C21.7154 16.9578 22.0569 17.0215 22.3659 17.0979L23.2439 17.2697C23.5203 17.3206 23.7642 17.3461 23.9756 17.3461C24.2683 17.3461 24.4797 17.2761 24.6098 17.136C24.7561 16.996 24.8293 16.8305 24.8293 16.6396C24.8293 16.3723 24.7154 16.1496 24.4878 15.9714C24.2764 15.7804 24 15.6277 23.6585 15.5131C23.3333 15.3858 22.9675 15.2904 22.561 15.2267Z" fill="black"/>
</svg>
