<svg width="40" height="40" viewBox="0 0 40 40" fill="none" xmlns="http://www.w3.org/2000/svg">
<path d="M31.25 19.5012H30.5V15.7512C30.5 15.3372 30.164 15.0012 29.75 15.0012H29V12.7512C29 12.3372 28.664 12.0012 28.25 12.0012H25.7135L24.4205 9.41517C24.2345 9.04317 23.7845 8.89467 23.414 9.07917L21.686 9.94467L21.4205 9.41517C21.2345 9.04467 20.7845 8.89467 20.414 9.08067L14.573 12.0012H10.25C9.0095 12.0012 8 13.0107 8 14.2512V27.7512C8 28.9917 9.0095 30.0012 10.25 30.0012H29.75C30.164 30.0012 30.5 29.6652 30.5 29.2512V25.5012H31.25C31.664 25.5012 32 25.1652 32 24.7512V20.2512C32 19.8372 31.664 19.5012 31.25 19.5012ZM27.5 13.5012V15.0012H27.2135L26.4635 13.5012H27.5ZM23.414 10.7577L25.5365 15.0012H24.2135L22.3565 11.2857L23.414 10.7577ZM20.414 10.7577L22.5365 15.0012H11.927L20.414 10.7577ZM10.25 13.5012H11.573L9.56 14.5077C9.53 14.4252 9.5 14.3412 9.5 14.2512C9.5 13.8372 9.836 13.5012 10.25 13.5012ZM29 28.5012H10.25C9.836 28.5012 9.5 28.1652 9.5 27.7512V16.3572C9.746 16.4457 9.998 16.5012 10.25 16.5012H29V19.5012H26C24.3455 19.5012 23 20.8467 23 22.5012C23 24.1557 24.3455 25.5012 26 25.5012H29V28.5012ZM30.5 24.0012H26C25.1735 24.0012 24.5 23.3277 24.5 22.5012C24.5 21.6747 25.1735 21.0012 26 21.0012H30.5V24.0012Z" fill="black"/>
</svg>
